<svg width="120" height="117" viewBox="0 0 120 117" fill="none" xmlns="http://www.w3.org/2000/svg">
<path d="M0.944281 116L7.73628 98.96H10.8563L17.6723 116H14.6483L13.0403 111.776H5.45628L3.84828 116H0.944281ZM6.41628 109.28H12.0803L9.24828 101.912L6.41628 109.28ZM24.5537 116.36C23.7217 116.36 22.9457 116.192 22.2257 115.856C21.5217 115.52 20.9057 115.056 20.3777 114.464C19.8497 113.872 19.4337 113.176 19.1297 112.376C18.8417 111.576 18.6977 110.712 18.6977 109.784C18.6977 108.84 18.8497 107.96 19.1537 107.144C19.4577 106.328 19.8817 105.616 20.4257 105.008C20.9697 104.4 21.6017 103.928 22.3217 103.592C23.0577 103.256 23.8497 103.088 24.6977 103.088C25.5297 103.088 26.2897 103.264 26.9777 103.616C27.6657 103.968 28.2337 104.464 28.6817 105.104V98.144H31.4417V116H28.9217L28.8017 113.984C28.3537 114.72 27.7617 115.304 27.0257 115.736C26.2897 116.152 25.4657 116.36 24.5537 116.36ZM25.1297 113.864C25.8177 113.864 26.4337 113.688 26.9777 113.336C27.5217 112.968 27.9457 112.472 28.2497 111.848C28.5697 111.224 28.7297 110.52 28.7297 109.736C28.7297 108.936 28.5697 108.224 28.2497 107.6C27.9457 106.976 27.5217 106.488 26.9777 106.136C26.4337 105.768 25.8177 105.584 25.1297 105.584C24.4417 105.584 23.8257 105.768 23.2817 106.136C22.7377 106.488 22.3057 106.976 21.9857 107.6C21.6817 108.224 21.5297 108.936 21.5297 109.736C21.5297 110.52 21.6817 111.224 21.9857 111.848C22.3057 112.472 22.7377 112.968 23.2817 113.336C23.8257 113.688 24.4417 113.864 25.1297 113.864ZM39.7178 116.36C38.8858 116.36 38.1098 116.192 37.3898 115.856C36.6858 115.52 36.0698 115.056 35.5418 114.464C35.0138 113.872 34.5978 113.176 34.2938 112.376C34.0058 111.576 33.8618 110.712 33.8618 109.784C33.8618 108.84 34.0138 107.96 34.3178 107.144C34.6218 106.328 35.0458 105.616 35.5898 105.008C36.1338 104.4 36.7658 103.928 37.4858 103.592C38.2218 103.256 39.0138 103.088 39.8618 103.088C40.6938 103.088 41.4538 103.264 42.1418 103.616C42.8298 103.968 43.3978 104.464 43.8458 105.104V98.144H46.6058V116H44.0858L43.9658 113.984C43.5178 114.72 42.9258 115.304 42.1898 115.736C41.4538 116.152 40.6298 116.36 39.7178 116.36ZM40.2938 113.864C40.9818 113.864 41.5978 113.688 42.1418 113.336C42.6858 112.968 43.1098 112.472 43.4138 111.848C43.7338 111.224 43.8938 110.52 43.8938 109.736C43.8938 108.936 43.7338 108.224 43.4138 107.6C43.1098 106.976 42.6858 106.488 42.1418 106.136C41.5978 105.768 40.9818 105.584 40.2938 105.584C39.6058 105.584 38.9898 105.768 38.4458 106.136C37.9018 106.488 37.4698 106.976 37.1498 107.6C36.8458 108.224 36.6938 108.936 36.6938 109.736C36.6938 110.52 36.8458 111.224 37.1498 111.848C37.4698 112.472 37.9018 112.968 38.4458 113.336C38.9898 113.688 39.6058 113.864 40.2938 113.864ZM54.8792 116V98.96H60.0392C61.3992 98.96 62.5592 99.184 63.5192 99.632C64.4952 100.08 65.2392 100.72 65.7512 101.552C66.2792 102.384 66.5432 103.392 66.5432 104.576C66.5432 105.696 66.2712 106.68 65.7272 107.528C65.1832 108.36 64.4152 109.008 63.4232 109.472C62.4312 109.92 61.2632 110.144 59.9192 110.144C59.5992 110.144 59.2552 110.128 58.8872 110.096C58.5352 110.064 58.1592 110.024 57.7592 109.976V116H54.8792ZM57.7592 101.504V107.432C58.1112 107.48 58.4632 107.52 58.8152 107.552C59.1672 107.584 59.4952 107.6 59.7992 107.6C61.0152 107.6 61.9432 107.336 62.5832 106.808C63.2392 106.28 63.5672 105.528 63.5672 104.552C63.5672 103.592 63.2552 102.848 62.6312 102.32C62.0072 101.776 61.1272 101.504 59.9912 101.504H57.7592ZM68.7732 116V98.144H71.5332V104.96C71.9172 104.384 72.4292 103.928 73.0692 103.592C73.7092 103.256 74.4292 103.088 75.2292 103.088C76.1732 103.088 76.9892 103.312 77.6772 103.76C78.3812 104.208 78.9252 104.84 79.3092 105.656C79.6932 106.472 79.8852 107.432 79.8852 108.536V116H77.1252V108.848C77.1252 107.824 76.8932 107.024 76.4292 106.448C75.9812 105.872 75.3492 105.584 74.5332 105.584C73.9572 105.584 73.4372 105.72 72.9732 105.992C72.5252 106.264 72.1732 106.632 71.9172 107.096C71.6612 107.56 71.5332 108.096 71.5332 108.704V116H68.7732ZM88.6911 116.36C87.7791 116.36 86.9311 116.2 86.1471 115.88C85.3791 115.544 84.7071 115.08 84.1311 114.488C83.5551 113.88 83.1071 113.176 82.7871 112.376C82.4671 111.56 82.3071 110.672 82.3071 109.712C82.3071 108.768 82.4671 107.896 82.7871 107.096C83.1071 106.28 83.5551 105.576 84.1311 104.984C84.7231 104.376 85.4111 103.912 86.1951 103.592C86.9951 103.256 87.8591 103.088 88.7871 103.088C89.6991 103.088 90.5391 103.256 91.3071 103.592C92.0911 103.912 92.7711 104.376 93.3471 104.984C93.9231 105.576 94.3711 106.272 94.6911 107.072C95.0111 107.872 95.1711 108.752 95.1711 109.712C95.1711 110.672 95.0111 111.56 94.6911 112.376C94.3711 113.176 93.9151 113.88 93.3231 114.488C92.7471 115.08 92.0591 115.544 91.2591 115.88C90.4751 116.2 89.6191 116.36 88.6911 116.36ZM88.7391 113.864C89.4271 113.864 90.0431 113.688 90.5871 113.336C91.1311 112.968 91.5551 112.472 91.8591 111.848C92.1791 111.224 92.3391 110.512 92.3391 109.712C92.3391 108.912 92.1791 108.208 91.8591 107.6C91.5551 106.976 91.1311 106.488 90.5871 106.136C90.0431 105.768 89.4271 105.584 88.7391 105.584C88.0511 105.584 87.4351 105.768 86.8911 106.136C86.3471 106.488 85.9151 106.976 85.5951 107.6C85.2911 108.208 85.1391 108.912 85.1391 109.712C85.1391 110.512 85.2911 111.224 85.5951 111.848C85.9151 112.472 86.3471 112.968 86.8911 113.336C87.4351 113.688 88.0511 113.864 88.7391 113.864ZM102.457 116.36C101.193 116.36 100.201 116 99.4812 115.28C98.7612 114.544 98.4012 113.496 98.4012 112.136V105.68H96.1932V103.448H98.4012V99.2H101.161V103.448H104.809V105.68H101.161V111.848C101.161 112.52 101.297 113.04 101.569 113.408C101.857 113.76 102.273 113.936 102.817 113.936C103.105 113.936 103.417 113.896 103.753 113.816C104.089 113.72 104.401 113.592 104.689 113.432L105.313 115.52C104.945 115.776 104.513 115.976 104.017 116.12C103.537 116.28 103.017 116.36 102.457 116.36ZM113.09 116.36C112.178 116.36 111.33 116.2 110.546 115.88C109.778 115.544 109.106 115.08 108.53 114.488C107.954 113.88 107.506 113.176 107.186 112.376C106.866 111.56 106.706 110.672 106.706 109.712C106.706 108.768 106.866 107.896 107.186 107.096C107.506 106.28 107.954 105.576 108.53 104.984C109.122 104.376 109.81 103.912 110.594 103.592C111.394 103.256 112.258 103.088 113.186 103.088C114.098 103.088 114.938 103.256 115.706 103.592C116.49 103.912 117.17 104.376 117.746 104.984C118.322 105.576 118.77 106.272 119.09 107.072C119.41 107.872 119.57 108.752 119.57 109.712C119.57 110.672 119.41 111.56 119.09 112.376C118.77 113.176 118.314 113.88 117.722 114.488C117.146 115.08 116.458 115.544 115.658 115.88C114.874 116.2 114.018 116.36 113.09 116.36ZM113.138 113.864C113.826 113.864 114.442 113.688 114.986 113.336C115.53 112.968 115.954 112.472 116.258 111.848C116.578 111.224 116.738 110.512 116.738 109.712C116.738 108.912 116.578 108.208 116.258 107.6C115.954 106.976 115.53 106.488 114.986 106.136C114.442 105.768 113.826 105.584 113.138 105.584C112.45 105.584 111.834 105.768 111.29 106.136C110.746 106.488 110.314 106.976 109.994 107.6C109.69 108.208 109.538 108.912 109.538 109.712C109.538 110.512 109.69 111.224 109.994 111.848C110.314 112.472 110.746 112.968 111.29 113.336C111.834 113.688 112.45 113.864 113.138 113.864Z" fill="#666666"/>
<path d="M80.6667 8H43.3333C40.3878 8 38 10.3878 38 13.3333V50.6667C38 53.6122 40.3878 56 43.3333 56H80.6667C83.6122 56 86 53.6122 86 50.6667V13.3333C86 10.3878 83.6122 8 80.6667 8Z" stroke="#666666" stroke-width="2" stroke-linecap="round" stroke-linejoin="round"/>
<path d="M52.6667 26.6666C54.8759 26.6666 56.6667 24.8758 56.6667 22.6666C56.6667 20.4575 54.8759 18.6666 52.6667 18.6666C50.4576 18.6666 48.6667 20.4575 48.6667 22.6666C48.6667 24.8758 50.4576 26.6666 52.6667 26.6666Z" stroke="#666666" stroke-width="2" stroke-linecap="round" stroke-linejoin="round"/>
<path d="M85.9999 40L72.6666 26.6666L43.3333 56" stroke="#666666" stroke-width="2" stroke-linecap="round" stroke-linejoin="round"/>
</svg>
