<svg width="197" height="18" viewBox="0 0 197 18" fill="none" xmlns="http://www.w3.org/2000/svg">
<path d="M49.5 15.208C45.3644 15.208 42 11.9724 42 7.99512C42 4.01788 45.3644 0.782227 49.5 0.782227C53.6356 0.782227 57 4.01788 57 7.99512C57 11.9724 53.6356 15.208 49.5 15.208ZM49.5 1.72056C45.9025 1.72056 42.9757 4.53529 42.9757 7.99512C42.9757 11.4549 45.9025 14.2696 49.5 14.2696C53.0975 14.2696 56.0243 11.4549 56.0243 7.99512C56.0243 4.53535 53.0975 1.72056 49.5 1.72056Z" fill="black"/>
<path d="M52.5595 6.81963C52.3325 6.9592 52.0308 6.89544 51.8856 6.6772C51.4143 5.96849 50.6116 5.5454 49.7382 5.5454C48.3338 5.5454 47.1913 6.64435 47.1913 7.99512C47.1913 9.34589 48.3338 10.4448 49.7382 10.4448C50.5857 10.4448 51.3753 10.0409 51.8506 9.36439C52.0014 9.14975 52.3046 9.09323 52.528 9.23833C52.7512 9.38337 52.8099 9.67508 52.659 9.88983C52.0022 10.825 50.9102 11.3833 49.7382 11.3833C47.7958 11.3833 46.2156 9.8634 46.2156 7.99512C46.2156 6.12684 47.7958 4.60693 49.7382 4.60693C50.946 4.60693 52.0561 5.19181 52.7076 6.17152C52.8528 6.38981 52.7865 6.67996 52.5595 6.81963Z" fill="black"/>
<path d="M69.4573 11.83H65.2013L64.4173 14H63.0733L66.6013 4.298H68.0713L71.5853 14H70.2413L69.4573 11.83ZM69.0933 10.794L67.3293 5.866L65.5653 10.794H69.0933ZM74.3969 7.574C74.6209 7.13533 74.9383 6.79467 75.3489 6.552C75.7689 6.30933 76.2776 6.188 76.8749 6.188V7.504H76.5389C75.1109 7.504 74.3969 8.27867 74.3969 9.828V14H73.1229V6.328H74.3969V7.574ZM82.6296 14L79.6196 10.612V14H78.3456V3.64H79.6196V9.73L82.5736 6.328H84.3516L80.7396 10.15L84.3656 14H82.6296ZM85.0747 10.136C85.0747 9.352 85.2333 8.666 85.5507 8.078C85.868 7.48067 86.302 7.01867 86.8527 6.692C87.4127 6.36533 88.0333 6.202 88.7147 6.202C89.3867 6.202 89.97 6.34667 90.4647 6.636C90.9593 6.92533 91.328 7.28933 91.5707 7.728V6.328H92.8587V14H91.5707V12.572C91.3187 13.02 90.9407 13.3933 90.4367 13.692C89.942 13.9813 89.3633 14.126 88.7007 14.126C88.0193 14.126 87.4033 13.958 86.8527 13.622C86.302 13.286 85.868 12.8147 85.5507 12.208C85.2333 11.6013 85.0747 10.9107 85.0747 10.136ZM91.5707 10.15C91.5707 9.57133 91.454 9.06733 91.2207 8.638C90.9873 8.20867 90.67 7.882 90.2687 7.658C89.8767 7.42467 89.4427 7.308 88.9667 7.308C88.4907 7.308 88.0567 7.42 87.6647 7.644C87.2727 7.868 86.96 8.19467 86.7267 8.624C86.4933 9.05333 86.3767 9.55733 86.3767 10.136C86.3767 10.724 86.4933 11.2373 86.7267 11.676C86.96 12.1053 87.2727 12.4367 87.6647 12.67C88.0567 12.894 88.4907 13.006 88.9667 13.006C89.4427 13.006 89.8767 12.894 90.2687 12.67C90.67 12.4367 90.9873 12.1053 91.2207 11.676C91.454 11.2373 91.5707 10.7287 91.5707 10.15ZM94.5356 10.136C94.5356 9.352 94.6943 8.666 95.0116 8.078C95.3289 7.48067 95.7629 7.01867 96.3136 6.692C96.8736 6.36533 97.4989 6.202 98.1896 6.202C98.7869 6.202 99.3423 6.342 99.8556 6.622C100.369 6.89267 100.761 7.252 101.032 7.7V3.64H102.32V14H101.032V12.558C100.78 13.0153 100.406 13.3933 99.9116 13.692C99.4169 13.9813 98.8383 14.126 98.1756 14.126C97.4943 14.126 96.8736 13.958 96.3136 13.622C95.7629 13.286 95.3289 12.8147 95.0116 12.208C94.6943 11.6013 94.5356 10.9107 94.5356 10.136ZM101.032 10.15C101.032 9.57133 100.915 9.06733 100.682 8.638C100.448 8.20867 100.131 7.882 99.7296 7.658C99.3376 7.42467 98.9036 7.308 98.4276 7.308C97.9516 7.308 97.5176 7.42 97.1256 7.644C96.7336 7.868 96.4209 8.19467 96.1876 8.624C95.9543 9.05333 95.8376 9.55733 95.8376 10.136C95.8376 10.724 95.9543 11.2373 96.1876 11.676C96.4209 12.1053 96.7336 12.4367 97.1256 12.67C97.5176 12.894 97.9516 13.006 98.4276 13.006C98.9036 13.006 99.3376 12.894 99.7296 12.67C100.131 12.4367 100.448 12.1053 100.682 11.676C100.915 11.2373 101.032 10.7287 101.032 10.15ZM111.473 9.87C111.473 10.1127 111.459 10.3693 111.431 10.64H105.299C105.345 11.396 105.602 11.9887 106.069 12.418C106.545 12.838 107.119 13.048 107.791 13.048C108.341 13.048 108.799 12.922 109.163 12.67C109.536 12.4087 109.797 12.0633 109.947 11.634H111.319C111.113 12.3713 110.703 12.9733 110.087 13.44C109.471 13.8973 108.705 14.126 107.791 14.126C107.063 14.126 106.409 13.9627 105.831 13.636C105.261 13.3093 104.813 12.8473 104.487 12.25C104.16 11.6433 103.997 10.9433 103.997 10.15C103.997 9.35667 104.155 8.66133 104.473 8.064C104.79 7.46667 105.233 7.00933 105.803 6.692C106.381 6.36533 107.044 6.202 107.791 6.202C108.519 6.202 109.163 6.36067 109.723 6.678C110.283 6.99533 110.712 7.434 111.011 7.994C111.319 8.54467 111.473 9.17 111.473 9.87ZM110.157 9.604C110.157 9.11867 110.049 8.70333 109.835 8.358C109.62 8.00333 109.326 7.73733 108.953 7.56C108.589 7.37333 108.183 7.28 107.735 7.28C107.091 7.28 106.54 7.48533 106.083 7.896C105.635 8.30667 105.378 8.876 105.313 9.604H110.157ZM122.38 6.188C122.978 6.188 123.51 6.314 123.976 6.566C124.443 6.80867 124.812 7.17733 125.082 7.672C125.353 8.16667 125.488 8.76867 125.488 9.478V14H124.228V9.66C124.228 8.89467 124.037 8.31133 123.654 7.91C123.281 7.49933 122.772 7.294 122.128 7.294C121.466 7.294 120.938 7.50867 120.546 7.938C120.154 8.358 119.958 8.96933 119.958 9.772V14H118.698V9.66C118.698 8.89467 118.507 8.31133 118.124 7.91C117.751 7.49933 117.242 7.294 116.598 7.294C115.936 7.294 115.408 7.50867 115.016 7.938C114.624 8.358 114.428 8.96933 114.428 9.772V14H113.154V6.328H114.428V7.434C114.68 7.03267 115.016 6.72467 115.436 6.51C115.866 6.29533 116.337 6.188 116.85 6.188C117.494 6.188 118.064 6.33267 118.558 6.622C119.053 6.91133 119.422 7.336 119.664 7.896C119.879 7.35467 120.234 6.93467 120.728 6.636C121.223 6.33733 121.774 6.188 122.38 6.188ZM134.186 6.328L129.566 17.612H128.25L129.762 13.916L126.668 6.328H128.082L130.49 12.544L132.87 6.328H134.186Z" fill="black"/>
</svg>
